<?xml version="1.0" standalone="no"?>
<!DOCTYPE svg PUBLIC "-//W3C//DTD SVG 20010904//EN"
 "http://www.w3.org/TR/2001/REC-SVG-20010904/DTD/svg10.dtd">
<svg version="1.0" xmlns="http://www.w3.org/2000/svg"
 width="512.000000pt" height="512.000000pt" viewBox="0 0 512.000000 512.000000"
 preserveAspectRatio="xMidYMid meet">
<metadata>
Created by potrace 1.14, written by Peter Selinger 2001-2017
</metadata>
<g transform="translate(0.000000,512.000000) scale(0.100000,-0.100000)"
fill="#000000" stroke="none">
<path d="M1797 4964 c-1 -1 -34 -5 -73 -8 -39 -4 -82 -9 -95 -12 -13 -3 -35
-7 -49 -10 -223 -44 -482 -154 -722 -307 -162 -104 -280 -192 -365 -274 -37
-35 -29 -70 42 -198 141 -251 263 -415 456 -607 76 -76 135 -138 130 -138 -7
0 -153 -145 -188 -186 -10 -12 -29 -35 -42 -50 -13 -16 -50 -69 -83 -119 -286
-430 -342 -990 -148 -1485 45 -115 172 -340 221 -390 8 -8 25 -28 37 -45 85
-112 278 -277 428 -365 90 -53 213 -110 239 -110 28 0 52 18 63 47 17 51 1 68
-120 127 -62 30 -135 70 -163 89 l-49 34 -2 124 c-2 150 -23 238 -88 367 -56
112 -60 91 69 367 53 114 86 202 87 239 4 130 -53 190 -238 250 -51 17 -90 36
-106 54 -15 15 -63 95 -108 177 -45 83 -93 164 -106 181 l-23 31 35 74 c57
119 159 263 262 371 53 54 108 108 123 119 l28 20 53 -34 c141 -90 338 -164
483 -181 22 -2 41 -5 42 -5 1 -1 -33 -36 -75 -78 -147 -149 -205 -316 -167
-480 33 -140 106 -243 208 -293 111 -53 229 -57 492 -15 17 2 55 7 87 11 55 6
57 6 71 -22 29 -56 34 -122 37 -466 3 -372 27 -474 130 -550 114 -84 303 -31
470 133 163 159 222 321 186 505 -21 106 -23 256 -5 312 18 57 52 104 110 157
52 46 153 116 217 149 l31 16 10 -53 c24 -122 31 -309 16 -437 -39 -343 -200
-662 -453 -905 -67 -63 -196 -164 -241 -186 -14 -8 -47 -26 -73 -42 -112 -67
-332 -141 -481 -162 -15 -2 -47 -7 -70 -11 -49 -7 -291 -7 -325 0 -31 7 -72
-33 -72 -69 0 -46 37 -71 110 -75 207 -10 348 2 522 45 443 109 829 411 1045
815 64 120 126 289 149 403 2 10 5 26 8 35 17 57 33 247 30 362 -5 240 -52
433 -163 665 -48 100 -156 276 -180 295 -4 3 -17 19 -29 35 -49 63 -181 190
-271 258 -93 71 -93 72 -70 87 13 8 58 43 99 76 l76 62 30 -21 c108 -76 263
-230 364 -362 216 -283 343 -604 377 -955 12 -128 7 -370 -11 -456 -2 -12 -7
-37 -10 -55 -79 -497 -411 -981 -866 -1262 -381 -235 -868 -324 -1314 -241
-398 74 -767 282 -1040 584 -82 90 -97 110 -164 210 -140 208 -263 509 -287
701 -4 30 -9 57 -11 60 -8 13 -18 160 -18 269 0 107 5 185 20 302 7 58 -17 88
-71 88 -49 0 -61 -25 -78 -153 -13 -103 -15 -385 -4 -452 3 -16 9 -52 12 -80
23 -175 115 -454 206 -624 298 -558 800 -926 1427 -1046 146 -28 402 -38 562
-22 583 58 1140 397 1464 892 150 229 239 446 295 721 42 207 48 469 15 699
-12 87 -68 293 -103 386 l-38 97 115 43 c245 90 420 198 573 349 186 185 261
373 254 639 -3 129 -14 201 -51 340 -45 166 -150 408 -199 457 -28 28 -54 26
-184 -17 -252 -83 -460 -201 -614 -348 -134 -128 -213 -259 -253 -421 -26
-106 -25 -361 2 -470 5 -21 -4 -15 -48 30 -90 91 -144 138 -235 207 -79 59
-92 74 -138 157 -87 156 -238 375 -285 413 -40 33 -110 -1 -110 -54 0 -22 37
-85 61 -103 7 -6 155 -228 189 -284 l23 -39 -34 7 c-19 3 -45 8 -59 11 -14 3
-59 12 -100 20 -41 8 -86 17 -100 20 -14 2 -98 19 -187 36 l-161 31 -294 401
c-161 220 -297 407 -302 415 -19 34 209 -5 346 -59 100 -39 171 -83 369 -226
44 -32 90 -17 110 34 14 37 -6 63 -94 129 -219 164 -433 254 -643 270 -97 7
-164 10 -167 8z m-16 -270 c46 -63 89 -121 94 -127 6 -7 35 -46 65 -87 110
-152 254 -346 286 -389 19 -24 34 -47 34 -51 0 -3 -51 4 -112 16 -62 12 -126
24 -143 27 -16 3 -64 12 -105 21 -41 8 -88 18 -105 20 -74 13 -80 17 -132 89
-29 40 -120 164 -203 277 -82 113 -150 208 -150 212 0 15 301 104 366 107 16
1 42 -28 105 -115z m-437 -284 c91 -123 164 -226 162 -227 -1 -1 -67 10 -147
26 -79 16 -254 50 -389 76 -135 25 -251 49 -259 51 -34 11 414 307 456 301 7
-1 86 -103 177 -227z m3186 218 c0 -5 -194 -473 -225 -543 -7 -16 -30 -70 -50
-120 -20 -49 -40 -93 -44 -98 -4 -4 -51 99 -105 229 l-97 237 23 24 c32 34
182 135 258 173 122 62 240 110 240 98z m180 -155 c43 -109 85 -260 95 -336
15 -119 15 -118 -8 -127 -187 -79 -439 -181 -441 -178 -2 2 30 82 71 178 40
96 78 186 84 200 44 110 153 370 155 370 1 0 21 -48 44 -107z m-797 -275 c2
-7 52 -129 111 -270 112 -272 110 -262 76 -333 -5 -11 -44 -103 -86 -205 -42
-102 -80 -189 -84 -193 -4 -5 -22 26 -40 69 -50 120 -70 190 -106 359 -3 17
-8 83 -9 147 -4 160 21 271 89 386 32 54 40 61 49 40z m-3123 -22 c41 -8 91
-18 110 -21 19 -3 80 -15 135 -26 55 -11 111 -22 125 -24 14 -2 57 -10 95 -18
39 -9 99 -21 135 -27 36 -7 71 -14 79 -16 8 -3 -37 -42 -105 -92 -274 -202
-329 -242 -335 -242 -22 0 -224 269 -318 423 -38 62 -39 67 -19 62 13 -2 57
-11 98 -19z m979 -191 c39 -8 85 -17 103 -20 18 -3 78 -15 133 -26 127 -25
142 -28 185 -35 59 -11 61 -17 17 -50 -42 -32 -616 -451 -672 -491 l-30 -21
-65 35 c-77 42 -196 126 -264 186 l-48 42 269 197 c147 108 276 197 285 198 9
0 48 -7 87 -15z m3041 -132 c0 -4 -7 -36 -16 -72 -59 -239 -282 -456 -617
-599 -54 -23 -102 -42 -106 -42 -7 0 97 263 148 375 5 11 20 45 34 75 l24 55
194 78 c185 75 242 99 299 124 30 14 40 15 40 6z m-2245 -22 c28 -6 61 -13 75
-15 14 -2 72 -14 130 -25 127 -26 139 -28 213 -42 108 -19 107 -18 20 -80
-316 -225 -583 -349 -868 -404 -72 -14 -266 -17 -344 -6 -138 20 -140 13 31
139 84 61 257 188 383 282 255 189 230 178 360 151z m443 -438 c207 -139 392
-355 502 -588 26 -55 50 -109 52 -120 3 -11 9 -27 12 -36 6 -13 -12 -27 -76
-64 -244 -141 -364 -277 -386 -442 -11 -78 -3 -216 17 -321 24 -124 -24 -248
-143 -367 -119 -120 -246 -167 -303 -113 -42 39 -54 106 -59 323 -7 342 -13
489 -18 515 -14 66 -37 124 -61 155 -52 69 -105 79 -271 51 -326 -55 -437 -35
-510 89 -75 129 -63 272 35 399 52 67 85 97 196 176 87 61 94 64 205 86 64 13
163 39 220 59 113 39 351 151 440 208 30 20 60 36 66 36 6 1 43 -20 82 -46z
m-2183 -958 c53 -100 101 -173 124 -193 30 -24 89 -52 167 -78 157 -53 158
-57 34 -324 -123 -266 -128 -305 -57 -445 51 -98 74 -177 81 -268 l4 -58 -21
18 c-70 61 -161 169 -224 267 -127 196 -206 415 -238 661 -8 57 -8 297 -1 323
2 9 7 40 11 67 3 28 13 78 22 113 l16 63 17 -28 c9 -15 38 -68 65 -118z"/>
</g>
</svg>
